<svg xmlns="http://www.w3.org/2000/svg" viewBox="0 0 338 338"><defs><style>.cls-1{opacity:0.63;}.cls-2{fill:#fff;}</style></defs><title>Asset 17</title><g id="Layer_2" data-name="Layer 2"><g id="Capa_1" data-name="Capa 1"><g class="cls-1"><path class="cls-2" d="M4974.07,74.21C4966.85,160.89,4894.25,229,4805.71,229V144.5a235.75,235.75,0,0,0,122.45-34.07A238,238,0,0,0,4974.07,74.21Z" transform="translate(-4805.71 109)"/><path class="cls-2" d="M4966.42,54h0a218,218,0,0,1-96.86,61.35A84.47,84.47,0,0,0,4805.71-24.5V-109c88.6,0,161.23,68.2,168.37,155C4971.48,48.57,4968.91,51.23,4966.42,54Z" transform="translate(-4805.71 109)"/><path class="cls-2" d="M4975.44,44.62A169,169,0,0,1,5143.71-109v84.5a238.52,238.52,0,0,0-168.27,69.12Z" transform="translate(-4805.71 109)"/><path class="cls-2" d="M4975.26,73c1.93-2,3.82-4,5.68-6h0A220.55,220.55,0,0,1,5080,4.52a84.47,84.47,0,0,0,63.7,140V229C5054.76,229,4981.92,160.27,4975.26,73Z" transform="translate(-4805.71 109)"/></g></g></g></svg>