<svg width="338" height="338" viewBox="0 0 338 338" fill="none" xmlns="http://www.w3.org/2000/svg">
<path d="M168.36 183.21C161.14 269.89 88.5399 338 -6.10352e-05 338V253.5C43.166 253.568 85.5223 241.783 122.45 219.43C139.184 209.29 154.604 197.125 168.36 183.21V183.21Z" fill="#4AAFA9"/>
<path d="M160.71 163C134.476 191.726 101.032 212.909 63.85 224.35C74.4751 212.113 81.3556 197.077 83.6708 181.037C85.9861 164.998 83.6384 148.63 76.9077 133.888C70.1769 119.145 59.3469 106.65 45.7104 97.8934C32.0738 89.1364 16.2061 84.4871 -6.10352e-05 84.5V0C88.5999 0 161.23 68.2 168.37 155C165.77 157.57 163.2 160.23 160.71 163Z" fill="#4AAFA9"/>
<path d="M169.73 153.62C173.566 111.641 192.953 72.6108 224.084 44.1894C255.216 15.7679 295.846 0.00716113 338 0V84.5C274.981 84.4063 214.487 109.256 169.73 153.62Z" fill="#4AAFA9"/>
<path d="M169.55 182C171.48 180 173.37 178 175.23 176C202.016 146.626 236.243 125.039 274.29 113.52C263.626 125.744 256.707 140.779 254.361 156.83C252.014 172.881 254.339 189.268 261.057 204.033C267.775 218.798 278.602 231.316 292.245 240.092C305.887 248.867 321.769 253.529 337.99 253.52V338C249.05 338 176.21 269.27 169.55 182Z" fill="#4AAFA9"/>
</svg>
