<svg xmlns="http://www.w3.org/2000/svg" viewBox="0 0 553.52 39.62"><defs><style>.cls-1{fill:#46b6ae;}</style></defs><title>express-banner-3</title><g id="Layer_2" data-name="Layer 2"><g id="Capa_1" data-name="Capa 1"><path class="cls-1" d="M429,266a.7.7,0,0,0,.25.05,5.4,5.4,0,0,0,1.39-.17,3,3,0,0,0,1.18-.61,4.28,4.28,0,0,0,.63-.84,4.08,4.08,0,0,0,.44-1.1.62.62,0,0,0,.09-.27.75.75,0,0,0,.05-.26v-.49a15.22,15.22,0,0,0,.36-4.79,12.32,12.32,0,0,0-1.31-4.48,7.31,7.31,0,0,0-3.18-3.34,10.34,10.34,0,0,0-4.95-1.09,14.83,14.83,0,0,0-5.72,1.11,16.16,16.16,0,0,0-5,3.32,23.74,23.74,0,0,0-3.75,4.71,20.34,20.34,0,0,0-2.26,5.4,17.17,17.17,0,0,0-.7,5.41,13.27,13.27,0,0,0,1.09,4.82,6.9,6.9,0,0,0,3.39,3.51,13.08,13.08,0,0,0,5.74,1.11h.75a16.45,16.45,0,0,0,2.93-.38,23,23,0,0,0,3-.86,22.15,22.15,0,0,0,2.66-1.22,13.15,13.15,0,0,0,2.08-1.37l.59-.51.49-.46.05-.06a4.94,4.94,0,0,0,.41-.6,2.24,2.24,0,0,0,.25-.63,3.62,3.62,0,0,0,.1-1.06,2.21,2.21,0,0,0-.29-1l-.06-.09a2.07,2.07,0,0,0-.71-.58A1.91,1.91,0,0,0,428,269h.06a3,3,0,0,0-.83.28,8.53,8.53,0,0,0-.81.47l-.75.51c-.27.18-.58.36-.91.55s-.81.42-1.23.6-.88.37-1.38.56a6.55,6.55,0,0,1-1.54.37,13.72,13.72,0,0,1-1.88.12A6.81,6.81,0,0,1,416,272a3.42,3.42,0,0,1-1.63-1.45,4.79,4.79,0,0,1-.73-2.21,7.49,7.49,0,0,1,.2-2.31Zm-5.57-11h.42a5.3,5.3,0,0,1,2.44.49,3.34,3.34,0,0,1,1.43,1.35,7.47,7.47,0,0,1,.71,2.07,7.93,7.93,0,0,1,.05,2.24,2.76,2.76,0,0,0-.08.27,1.84,1.84,0,0,0,0,.33.76.76,0,0,0,0,.11c0,.05,0,.09,0,.14H414.7a13.89,13.89,0,0,1,1.2-2.37,14.59,14.59,0,0,1,1.88-2.4,7.55,7.55,0,0,1,2.49-1.66A8.23,8.23,0,0,1,423.4,255Z" transform="translate(-406.48 -248.61)"/><path class="cls-1" d="M455.58,272.87l-4.79-9.68,8.8-8.52c.17-.17.33-.34.49-.52a2.47,2.47,0,0,0,.4-.55l.24-.37a1.78,1.78,0,0,0,.28-.61,2.7,2.7,0,0,0,.07-1,2.26,2.26,0,0,0-.36-.93A2.21,2.21,0,0,0,460,250a2.69,2.69,0,0,0-1.82-.13,3,3,0,0,0-.67.26,1.69,1.69,0,0,0-.41.24l-.09.07-.08,0-.28.19a2.91,2.91,0,0,0-.27.24l-7.92,7.78-3.66-7.54a2.16,2.16,0,0,0-.19-.31,1.69,1.69,0,0,0-.2-.24,1,1,0,0,0-.4-.42,1.9,1.9,0,0,0-.62-.31,3,3,0,0,0-1.87.1,3.34,3.34,0,0,0-.91.56,3,3,0,0,0-.7.83,3.55,3.55,0,0,0-.37.92,3.82,3.82,0,0,0-.09.44,3.74,3.74,0,0,0,0,.52.88.88,0,0,0,0,.16c0,.15.09.31.14.48a2.12,2.12,0,0,0,.34.62l4.13,8.39L434,272.68a.66.66,0,0,0-.12.17c-.19.2-.37.38-.52.55a4,4,0,0,0-.48.61,2.24,2.24,0,0,0-.36.65,1.64,1.64,0,0,1-.14.33.58.58,0,0,0,0,.14,2.5,2.5,0,0,0-.06,1,2,2,0,0,0,.36.94.39.39,0,0,0,.08.1,2.4,2.4,0,0,0,.78.53,2.77,2.77,0,0,0,1.71.08l.55-.17a2.36,2.36,0,0,0,.78-.31,2.93,2.93,0,0,0,.64-.57l9.22-9.32,4.1,9.13a2,2,0,0,0,.42.66,1.57,1.57,0,0,0,.65.39l.51.18a2.61,2.61,0,0,0,.75.11,3.54,3.54,0,0,0,1-.16,3.4,3.4,0,0,0,1-.48,3.21,3.21,0,0,0,.79-.82,2.93,2.93,0,0,0,.39-.9A1.58,1.58,0,0,0,456,275v-.59a2.59,2.59,0,0,0-.13-.78A6.42,6.42,0,0,0,455.58,272.87Z" transform="translate(-406.48 -248.61)"/><path class="cls-1" d="M486.3,254.27a7.36,7.36,0,0,0-3-3.37,9.43,9.43,0,0,0-4.79-1.13A12.51,12.51,0,0,0,476,250a12.86,12.86,0,0,0-2.3.74,9.51,9.51,0,0,0-2,1.2h0a1.09,1.09,0,0,0,0-.18,1.8,1.8,0,0,0-.41-1.09,2.1,2.1,0,0,0-.83-.69,3.06,3.06,0,0,0-2.34,0,4.36,4.36,0,0,0-1,.58,4.93,4.93,0,0,0-.74.83,3.56,3.56,0,0,0-.51,1.15h0l-8.67,32.34a.56.56,0,0,0,0,.12,3,3,0,0,0-.12,1.23,2.15,2.15,0,0,0,.36,1l0,.06a2.59,2.59,0,0,0,.82.65,2.51,2.51,0,0,0,1.16.25,3.22,3.22,0,0,0,1.19-.22,3.57,3.57,0,0,0,1-.56,3.27,3.27,0,0,0,.82-.92,5.12,5.12,0,0,0,.47-1.09l2.7-10.06a5.32,5.32,0,0,0,.52.55,11,11,0,0,0,1.33,1,5.61,5.61,0,0,0,1.86.73,10.64,10.64,0,0,0,2.17.22,13.37,13.37,0,0,0,5.25-1.05,14.67,14.67,0,0,0,4.56-3.15,21.86,21.86,0,0,0,3.48-4.51,22.27,22.27,0,0,0,2.17-5.12,17.14,17.14,0,0,0,.59-5.15A13,13,0,0,0,486.3,254.27ZM481,264l-.17.51v0a.77.77,0,0,0-.12.36l-.16.47a15.86,15.86,0,0,1-1.41,2.71,19.74,19.74,0,0,1-2,2.49,7,7,0,0,1-2.32,1.68,7.23,7.23,0,0,1-2.87.55,5.15,5.15,0,0,1-2.52-.53,2.76,2.76,0,0,1-1.31-1.48,8.78,8.78,0,0,1-.57-2.39,10.89,10.89,0,0,1,.12-2.65.49.49,0,0,0,0-.12,1.66,1.66,0,0,1,0-.32c0-.14.06-.27.1-.43s.06-.26.1-.38.08-.24.11-.37a.86.86,0,0,0,.05-.27.66.66,0,0,1,0-.13,1.57,1.57,0,0,0,.13-.4l0-.18.06-.14c0-.06.05-.12.07-.17a.5.5,0,0,0,.08-.27.87.87,0,0,1,.07-.17l0-.07a13.07,13.07,0,0,1,1.36-2.69,19.14,19.14,0,0,1,1.95-2.5,6.77,6.77,0,0,1,2.34-1.67,7.39,7.39,0,0,1,2.9-.56,5.14,5.14,0,0,1,2.49.53A2.86,2.86,0,0,1,481,257a8.8,8.8,0,0,1,.6,2.4,9.74,9.74,0,0,1-.08,2.58,2.71,2.71,0,0,0-.09.51,1.28,1.28,0,0,1-.08.29l0,.09a3.86,3.86,0,0,0-.09.51,2.33,2.33,0,0,1-.06.35A1.42,1.42,0,0,0,481,264Z" transform="translate(-406.48 -248.61)"/><path class="cls-1" d="M508.58,254a2.75,2.75,0,0,0,.52-1.12,2.29,2.29,0,0,0,.09-1.15,3.25,3.25,0,0,0-.35-1l-.08-.1a2.27,2.27,0,0,0-.94-.67,4.48,4.48,0,0,0-3.09.11,8.41,8.41,0,0,0-1.8.9,14.33,14.33,0,0,0-1.69,1.19l-.48.41a2.94,2.94,0,0,0,.06-.82,1.8,1.8,0,0,0-.41-1.09,2.1,2.1,0,0,0-.83-.69,3.06,3.06,0,0,0-2.34,0,4.57,4.57,0,0,0-1,.58,4.93,4.93,0,0,0-.74.83,3.9,3.9,0,0,0-.51,1.15h0l-6,22.17a.37.37,0,0,0,0,.12,3.13,3.13,0,0,0-.1,1.15,2.19,2.19,0,0,0,.36,1l0,.06a2.08,2.08,0,0,0,.9.63,3.22,3.22,0,0,0,1.08.17,4.2,4.2,0,0,0,1.12-.15,2.56,2.56,0,0,0,1-.54,3,3,0,0,0,.83-.92,4.34,4.34,0,0,0,.47-1.18l3.35-12.41a13.39,13.39,0,0,1,1-2.67,5.79,5.79,0,0,1,1.42-1.82,12,12,0,0,1,1.76-1.33,8.19,8.19,0,0,1,1.72-.79.69.69,0,0,0,.19-.1,3,3,0,0,0,.34-.07.82.82,0,0,0,.28,0l.17-.07.09,0h.1a6.37,6.37,0,0,0,1.43-.36,4.35,4.35,0,0,0,2-1.4Z" transform="translate(-406.48 -248.61)"/><path class="cls-1" d="M533.36,257.52a12.32,12.32,0,0,0-1.31-4.48,7.31,7.31,0,0,0-3.18-3.34,10.34,10.34,0,0,0-5-1.09,14.83,14.83,0,0,0-5.72,1.11,16.16,16.16,0,0,0-5,3.32,23.45,23.45,0,0,0-3.75,4.71,20.47,20.47,0,0,0-2.26,5.4,17.17,17.17,0,0,0-.7,5.41,13.27,13.27,0,0,0,1.09,4.82,6.9,6.9,0,0,0,3.39,3.51,13,13,0,0,0,5.74,1.11h.75a16.45,16.45,0,0,0,2.93-.38,23,23,0,0,0,3-.86,22.15,22.15,0,0,0,2.66-1.22,13.15,13.15,0,0,0,2.08-1.37l.59-.51.49-.46.05-.06a4.94,4.94,0,0,0,.41-.6,2.24,2.24,0,0,0,.25-.63,3.62,3.62,0,0,0,.1-1.06,2.21,2.21,0,0,0-.29-1l-.06-.09a2.07,2.07,0,0,0-.71-.58A1.91,1.91,0,0,0,528,269h.06a3,3,0,0,0-.83.28,8.53,8.53,0,0,0-.81.47l-.75.51c-.27.18-.58.36-.91.55s-.81.42-1.23.6-.88.37-1.38.56a6.55,6.55,0,0,1-1.54.37,13.72,13.72,0,0,1-1.88.12A6.81,6.81,0,0,1,516,272a3.42,3.42,0,0,1-1.63-1.45,4.79,4.79,0,0,1-.73-2.21,7.49,7.49,0,0,1,.2-2.31H529a.7.7,0,0,0,.25.05,5.4,5.4,0,0,0,1.39-.17,3,3,0,0,0,1.18-.61,4.28,4.28,0,0,0,.63-.84,4.08,4.08,0,0,0,.44-1.1.62.62,0,0,0,.09-.27.75.75,0,0,0,0-.26v-.49A15.22,15.22,0,0,0,533.36,257.52ZM522.65,255h.42a5.34,5.34,0,0,1,2.45.49,3.37,3.37,0,0,1,1.42,1.35,7.16,7.16,0,0,1,.71,2.07,8.3,8.3,0,0,1,.06,2.24,1.38,1.38,0,0,0-.08.27,1.86,1.86,0,0,0,0,.33l0,.11a.78.78,0,0,0,0,.14H514a14.66,14.66,0,0,1,1.2-2.37,15.14,15.14,0,0,1,1.88-2.4,7.55,7.55,0,0,1,2.49-1.66A8.23,8.23,0,0,1,522.65,255Z" transform="translate(-406.48 -248.61)"/><path class="cls-1" d="M552.28,256.51a1,1,0,0,0,.29.3,1.78,1.78,0,0,0,.3.31l.29.21a.87.87,0,0,0,.26.16.74.74,0,0,0,.26.15.64.64,0,0,0,.18.1,3,3,0,0,0,.45.11,3.82,3.82,0,0,0,1.58-.13,2.86,2.86,0,0,0,1-.6,6.1,6.1,0,0,0,.56-.64,2.23,2.23,0,0,0,.43-.94,2.69,2.69,0,0,0-.1-1.92,3.93,3.93,0,0,0-1.39-1.56,12.13,12.13,0,0,0-1.85-1,11.44,11.44,0,0,0-2.14-.72c-.18,0-.36-.06-.52-.08a1.61,1.61,0,0,1-.33-.06l-.18,0h-.08a1.76,1.76,0,0,0-.31,0c-.23,0-.45-.06-.67-.07l-.67,0h-.74a11.88,11.88,0,0,0-3.26.57A16.34,16.34,0,0,0,542.5,252a9,9,0,0,0-4.2,5.48.44.44,0,0,0,0,.13,5.57,5.57,0,0,0-.09,2.58,3.74,3.74,0,0,0,1.31,2.08,16.5,16.5,0,0,0,1.93,1.42,18.37,18.37,0,0,0,2.15,1.16l.68.34a1.13,1.13,0,0,0,.21.12l.1.06.26.12.26.09c.56.27,1.08.54,1.55.82a10.19,10.19,0,0,1,1.32.94,1.58,1.58,0,0,1,.62.75,1.54,1.54,0,0,1,0,1,3.07,3.07,0,0,1-.55,1,4.17,4.17,0,0,1-1.11,1,5,5,0,0,1-1.51.69,7.71,7.71,0,0,1-1.92.23,8.5,8.5,0,0,1-1.41-.11,4.41,4.41,0,0,1-1.06-.31,7.33,7.33,0,0,1-.93-.45,3.24,3.24,0,0,1-.64-.48l-.08-.08a4.79,4.79,0,0,1-.51-.4c-.15-.14-.31-.27-.47-.4a2.69,2.69,0,0,0-.62-.46,2.44,2.44,0,0,0-.59-.24.66.66,0,0,0-.32-.08h-.32l-.26,1H536a2.43,2.43,0,0,0-1,.21,5,5,0,0,0-.83.47l-.05,0a3.76,3.76,0,0,0-.7.8,3,3,0,0,0-.41,1,2.49,2.49,0,0,0-.09.37,1.33,1.33,0,0,1-.05.19.85.85,0,0,0,0,.22.92.92,0,0,0,.06.33.73.73,0,0,0,.07.24l.12.24a3.59,3.59,0,0,0,1.07,1.65,9,9,0,0,0,2,1.35,9.82,9.82,0,0,0,2.8.94,18.27,18.27,0,0,0,3.33.29,14.93,14.93,0,0,0,3.81-.5,16.39,16.39,0,0,0,3.74-1.53,10.55,10.55,0,0,0,3.12-2.69,10.65,10.65,0,0,0,1.83-3.85,5.66,5.66,0,0,0,.13-2.89,4.34,4.34,0,0,0-1.45-2.26,21.55,21.55,0,0,0-2-1.46,13.93,13.93,0,0,0-2.33-1.24l-.5-.21-.59-.25-.24-.09-.13-.07a.56.56,0,0,0-.17-.09.31.31,0,0,1-.13-.06l-.37-.17-1.54-.74a6.63,6.63,0,0,1-1.16-.74,1.55,1.55,0,0,1-.52-.7,1.23,1.23,0,0,1,0-.78,3.6,3.6,0,0,1,.62-1.22,3,3,0,0,1,1-.82,7.92,7.92,0,0,1,1.52-.57,7.59,7.59,0,0,1,2.9-.11,3.16,3.16,0,0,1,.9.28,7,7,0,0,1,.67.38l.62.42.05.05,0,0,0,.09h0Zm-.1-.41.46-.46-.29.38Z" transform="translate(-406.48 -248.61)"/><path class="cls-1" d="M573.64,250h-.86a11.88,11.88,0,0,0-3.26.57,16,16,0,0,0-3.17,1.45,9,9,0,0,0-4.21,5.48.44.44,0,0,0,0,.13,5.57,5.57,0,0,0-.09,2.58,3.74,3.74,0,0,0,1.31,2.08,16.5,16.5,0,0,0,1.93,1.42,18.37,18.37,0,0,0,2.15,1.16l.69.34a.82.82,0,0,0,.2.12l.1.06.26.12.26.09c.56.27,1.08.54,1.55.82a10.19,10.19,0,0,1,1.32.94,1.58,1.58,0,0,1,.62.75,1.54,1.54,0,0,1,0,1,3.07,3.07,0,0,1-.55,1,4.17,4.17,0,0,1-1.11,1,5,5,0,0,1-1.51.69,7.71,7.71,0,0,1-1.92.23,8.5,8.5,0,0,1-1.41-.11,4.41,4.41,0,0,1-1.06-.31,7.33,7.33,0,0,1-.93-.45,2.9,2.9,0,0,1-.63-.48l-.09-.08a4.79,4.79,0,0,1-.51-.4c-.15-.14-.31-.27-.47-.4a2.69,2.69,0,0,0-.62-.46,2.29,2.29,0,0,0-.59-.24.66.66,0,0,0-.32-.08h-.32l-.26,1h-.36a2.48,2.48,0,0,0-1,.21,4.27,4.27,0,0,0-.85.48l0,0a3.69,3.69,0,0,0-.72.82,3.37,3.37,0,0,0-.42,1,2.49,2.49,0,0,0-.09.37,1.46,1.46,0,0,1-.05.2.85.85,0,0,0,0,.23,1.26,1.26,0,0,0,.05.33.73.73,0,0,0,.07.24l.12.25a3.8,3.8,0,0,0,1.1,1.68,9.68,9.68,0,0,0,2,1.38,10.23,10.23,0,0,0,2.86.95,19,19,0,0,0,3.39.29A15.47,15.47,0,0,0,570,278a16.42,16.42,0,0,0,3.81-1.57,10.54,10.54,0,0,0,3.18-2.74,11,11,0,0,0,1.86-3.91,5.79,5.79,0,0,0,.14-2.95,4.4,4.4,0,0,0-1.48-2.3,22.27,22.27,0,0,0-2-1.49,14.62,14.62,0,0,0-2.39-1.26l-.5-.21-.6-.26-.24-.09s-.06,0-.14-.08l-.17-.08-.14-.06a1.91,1.91,0,0,0-.38-.18c-.55-.26-1.07-.51-1.56-.76a6,6,0,0,1-1.18-.75,1.53,1.53,0,0,1-.53-.71,1.19,1.19,0,0,1,0-.79,3.59,3.59,0,0,1,.63-1.25,3.89,3.89,0,0,1,2.1-1.27,17.53,17.53,0,0,1,3.35-.28h381l5.23-5Z" transform="translate(-406.48 -248.61)"/></g></g></svg>