<svg width="100" height="100" viewBox="0 0 100 100" fill="none" xmlns="http://www.w3.org/2000/svg">
<path fill-rule="evenodd" clip-rule="evenodd" d="M44.7778 55.3846L47.9111 55.3846V27.3846C47.9111 24.4108 50.2492 22 53.1333 22H91.7778C94.6619 22 97 24.4108 97 27.3846V61.8462C97 64.82 94.6619 67.2308 91.7778 67.2308H87.2972C86.3984 64.1169 83.6008 61.8462 80.2889 61.8462C76.9769 61.8462 74.1793 64.1169 73.2805 67.2308H36.1195C35.2207 64.1169 32.4231 61.8462 29.1111 61.8462C25.7992 61.8462 23.0016 64.1169 22.1028 67.2308H8.22222C5.33807 67.2308 3 64.82 3 61.8462V45.6923C3 42.7185 5.33807 40.3077 8.22222 40.3077L12.9222 38.1538L25.9778 23.0769C26.5 22.5385 27.5444 22 28.0667 22H39.5556C42.4397 22 44.7778 24.4108 44.7778 27.3846L44.7778 55.3846ZM8.22222 43.5385L14.4889 41.3846L27.0222 26.3077C27.5444 25.7692 28.0667 25.2308 28.5889 25.2308H39.5556C40.7092 25.2308 41.6444 26.1951 41.6444 27.3846L41.6445 57.5385C41.6444 58.0769 42.1667 58.6154 42.6889 58.6154H50C50.5222 58.6154 51.0444 58.0769 51.0445 57.5385L51.0444 27.3846C51.0444 26.7803 51.2858 26.2342 51.6745 25.843L65.9077 64H38.1583C36.3524 60.7811 32.977 58.6154 29.1111 58.6154C25.2452 58.6154 21.8698 60.7811 20.064 64H8.22222C7.06856 64 6.13334 63.0357 6.13334 61.8462L6.13333 45.6923C6.13333 44.5028 7.06856 43.5385 8.22222 43.5385ZM86.1251 25.2308H91.7778C92.9314 25.2308 93.8667 26.1951 93.8667 27.3846V46.275L86.1251 25.2308ZM82.7739 25.2308H70.4686L84.0951 59.3529C86.3106 60.2472 88.1575 61.8993 89.3361 64H91.7778C92.9314 64 93.8667 63.0357 93.8667 61.8462V55.3846L82.7739 25.2308ZM80.4123 58.6161L67.08 25.2308H54.8033L69.2648 64H71.2417C73.0476 60.7811 76.423 58.6154 80.2889 58.6154C80.3301 58.6154 80.3712 58.6156 80.4123 58.6161Z" fill="black"/>
<path d="M35.3778 71.5385C35.3778 75.1071 32.5721 78 29.1111 78C25.6501 78 22.8444 75.1071 22.8444 71.5385C22.8444 67.9699 25.6501 65.0769 29.1111 65.0769C32.5721 65.0769 35.3778 67.9699 35.3778 71.5385Z" fill="black"/>
<path d="M80.2889 78C83.7499 78 86.5556 75.1071 86.5556 71.5385C86.5556 67.9699 83.7499 65.0769 80.2889 65.0769C76.8279 65.0769 74.0222 67.9699 74.0222 71.5385C74.0222 75.1071 76.8279 78 80.2889 78Z" fill="black"/>
</svg>
